<?xml version="1.0" encoding="utf-8"?>
<!-- Generator: Adobe Illustrator 16.0.0, SVG Export Plug-In . SVG Version: 6.00 Build 0)  -->
<!DOCTYPE svg PUBLIC "-//W3C//DTD SVG 1.1//EN" "http://www.w3.org/Graphics/SVG/1.1/DTD/svg11.dtd">
<svg version="1.1" id="Capa_1" xmlns="http://www.w3.org/2000/svg" xmlns:xlink="http://www.w3.org/1999/xlink" x="0px" y="0px"
	 width="180px" height="180px" viewBox="0 0 180 180" enable-background="new 0 0 180 180" xml:space="preserve">
<g id="Rodona">
	<circle fill="#FFFFFF" cx="90" cy="90" r="86.641"/>
	<g>
		<g enable-background="new    ">
			<path fill="#CC0033" d="M137.976,36.646c-16.667,38.329-24.997,61.866-24.997,70.614c0,3.545,1.563,5.313,4.688,5.313
				c1.04,0,3.227-1.04,6.562-3.125c3.329-2.08,5.829-3.125,7.499-3.125c2.08,0,3.125,1.147,3.125,3.438
				c0,1.46-4.063,4.687-12.187,9.687c-9.169,5.414-14.792,8.123-16.872,8.123c-8.749,0-13.123-5.414-13.123-16.247
				c0-7.289,0.83-14.788,2.499-22.497c-0.835,0-3.856,3.232-9.061,9.687C70.065,117.054,55.38,126.32,42.052,126.32
				c-6.044,0-11.043-1.982-14.998-5.938c-3.959-3.954-5.937-8.953-5.937-14.997c-0.42-19.788,9.891-37.495,30.933-53.118
				c18.952-14.578,38.745-21.872,59.367-21.872C128.705,30.396,137.556,32.48,137.976,36.646z M112.666,46.331
				c0-4.164-4.686-6.249-14.061-6.249c-13.958,0-26.768,5.521-38.432,16.561C48.506,67.686,42.677,80.076,42.677,93.824
				c0,9.374,4.164,14.061,12.498,14.061C72.462,107.885,91.625,87.37,112.666,46.331z"/>
		</g>
		<g enable-background="new    ">
			<path fill="#009966" d="M150.23,144.472h-5.444v-26.313l-8.031,2.737v-4.589l12.778-4.701h0.697V144.472z"/>
		</g>
		<g id="arrodonida_9_">
			<g>
				<g>
					<path fill="#FFFFFF" stroke="#CC0033" stroke-miterlimit="10" d="M129.34,37.131c0.174-0.328,0.362-0.657,0.547-0.986
						c0.19-0.327,0.381-0.657,0.574-0.975c0.096-0.158,0.191-0.317,0.289-0.472c0.098-0.155,0.189-0.309,0.289-0.459
						c0.382-0.598,0.755-1.146,1.087-1.61c0.334-0.464,0.625-0.842,0.835-1.104c0.105-0.13,0.191-0.23,0.25-0.3
						c0.061-0.068,0.092-0.104,0.092-0.104s-0.018,0.046-0.045,0.131c-0.029,0.085-0.072,0.21-0.133,0.367
						c-0.117,0.314-0.295,0.759-0.527,1.278c-0.231,0.522-0.518,1.122-0.839,1.755c-0.079,0.16-0.165,0.318-0.25,0.48
						c-0.084,0.162-0.172,0.325-0.26,0.489c-0.179,0.328-0.364,0.656-0.55,0.986c-0.192,0.329-0.379,0.655-0.575,0.974
						c-0.021,0.034-0.042,0.069-0.063,0.102c1.674-0.616,6.115-2.45,7.563-4.978c3.283-5.735-4.595-10.245-7.88-4.51
						c-1.445,2.527-0.777,7.285-0.461,9.043C129.301,37.203,129.32,37.167,129.34,37.131z"/>
				</g>
				<g>
					<path fill="#FFFFFF" stroke="#CC0033" stroke-miterlimit="10" d="M130.714,38.593c0.372-0.013,0.751-0.015,1.129-0.02
						c0.38,0.001,0.757,0,1.13,0.01c0.187,0.003,0.373,0.008,0.555,0.014c0.182,0.007,0.363,0.011,0.541,0.021
						c0.709,0.031,1.371,0.079,1.939,0.136s1.041,0.12,1.372,0.172c0.166,0.026,0.296,0.051,0.384,0.066
						c0.09,0.018,0.137,0.025,0.137,0.025s-0.047,0.011-0.135,0.027c-0.09,0.017-0.22,0.044-0.385,0.069
						c-0.332,0.054-0.803,0.122-1.372,0.181c-0.567,0.062-1.229,0.115-1.937,0.152c-0.178,0.011-0.359,0.017-0.543,0.023
						c-0.18,0.009-0.368,0.017-0.553,0.019c-0.373,0.012-0.752,0.016-1.129,0.019c-0.377-0.002-0.756-0.002-1.129-0.009
						c-0.042-0.002-0.08-0.005-0.121-0.004c1.371,1.14,5.182,4.069,8.094,4.06c6.606-0.026,6.574-9.103-0.034-9.078
						c-2.914,0.01-6.7,2.968-8.064,4.118C130.633,38.596,130.673,38.594,130.714,38.593z"/>
				</g>
				<g>
					<path fill="#FFFFFF" stroke="#CC0033" stroke-miterlimit="10" d="M130.137,40.516c0.196,0.315,0.389,0.642,0.581,0.968
						c0.188,0.327,0.38,0.655,0.556,0.983c0.093,0.16,0.181,0.324,0.267,0.486c0.085,0.16,0.17,0.319,0.253,0.479
						c0.325,0.63,0.616,1.229,0.85,1.749c0.235,0.519,0.418,0.961,0.537,1.273c0.063,0.156,0.104,0.282,0.137,0.366
						c0.027,0.087,0.043,0.132,0.043,0.132s-0.03-0.037-0.092-0.104c-0.058-0.069-0.145-0.168-0.25-0.298
						c-0.213-0.262-0.508-0.637-0.845-1.098c-0.336-0.461-0.712-1.007-1.101-1.604c-0.098-0.148-0.194-0.301-0.29-0.456
						c-0.099-0.153-0.197-0.312-0.292-0.47c-0.197-0.316-0.389-0.644-0.581-0.97c-0.188-0.328-0.378-0.654-0.558-0.983
						c-0.02-0.034-0.039-0.07-0.058-0.105c-0.303,1.759-0.933,6.522,0.53,9.039c3.326,5.709,11.171,1.141,7.846-4.569
						c-1.465-2.517-5.92-4.317-7.6-4.922C130.094,40.447,130.113,40.479,130.137,40.516z"/>
				</g>
				<g>
					<path fill="#FFFFFF" stroke="#CC0033" stroke-miterlimit="10" d="M128.182,40.975c-0.174,0.329-0.361,0.656-0.548,0.987
						c-0.188,0.328-0.38,0.655-0.571,0.973c-0.098,0.16-0.192,0.317-0.291,0.473c-0.097,0.156-0.19,0.31-0.289,0.458
						c-0.381,0.6-0.756,1.148-1.088,1.612c-0.332,0.463-0.623,0.842-0.834,1.104c-0.104,0.129-0.191,0.23-0.25,0.299
						c-0.06,0.069-0.09,0.104-0.09,0.104s0.016-0.044,0.043-0.129c0.031-0.084,0.072-0.211,0.133-0.368
						c0.119-0.314,0.295-0.757,0.528-1.278c0.232-0.521,0.517-1.122,0.839-1.754c0.079-0.159,0.164-0.318,0.25-0.481
						c0.084-0.162,0.17-0.325,0.258-0.487c0.178-0.328,0.363-0.659,0.551-0.988c0.191-0.327,0.379-0.654,0.572-0.973
						c0.022-0.035,0.043-0.068,0.063-0.104c-1.673,0.619-6.116,2.453-7.563,4.98c-3.283,5.735,4.597,10.243,7.881,4.509
						c1.445-2.526,0.779-7.285,0.461-9.044C128.223,40.903,128.203,40.938,128.182,40.975z"/>
				</g>
				<g>
					<path fill="#FFFFFF" stroke="#CC0033" stroke-miterlimit="10" d="M126.809,39.514c-0.373,0.012-0.752,0.014-1.129,0.018
						c-0.38,0-0.757,0.001-1.131-0.01c-0.184-0.003-0.369-0.007-0.553-0.014c-0.184-0.006-0.364-0.011-0.541-0.021
						c-0.708-0.03-1.372-0.079-1.939-0.136s-1.041-0.12-1.371-0.172c-0.168-0.024-0.297-0.052-0.387-0.064
						c-0.089-0.019-0.136-0.026-0.136-0.026s0.048-0.012,0.136-0.027c0.09-0.017,0.219-0.044,0.385-0.069
						c0.33-0.055,0.803-0.121,1.371-0.182c0.567-0.061,1.229-0.116,1.938-0.152c0.179-0.009,0.358-0.017,0.54-0.024
						c0.184-0.009,0.367-0.014,0.554-0.018c0.372-0.012,0.752-0.016,1.13-0.019c0.379,0.001,0.756,0.001,1.129,0.013
						c0.043-0.001,0.08,0.002,0.122,0.001c-1.372-1.141-5.183-4.069-8.093-4.06c-6.607,0.025-6.575,9.104,0.033,9.079
						c2.91-0.013,6.699-2.971,8.064-4.119C126.891,39.51,126.848,39.513,126.809,39.514z"/>
				</g>
				<g>
					<path fill="#FFFFFF" stroke="#CC0033" stroke-miterlimit="10" d="M127.384,37.591c-0.194-0.315-0.386-0.642-0.579-0.968
						c-0.188-0.329-0.378-0.656-0.557-0.983c-0.091-0.161-0.178-0.325-0.264-0.485c-0.086-0.161-0.174-0.32-0.254-0.48
						c-0.326-0.629-0.615-1.228-0.851-1.748c-0.235-0.521-0.417-0.962-0.537-1.273c-0.063-0.155-0.104-0.282-0.136-0.366
						c-0.029-0.086-0.046-0.132-0.046-0.132s0.032,0.036,0.093,0.104c0.057,0.069,0.145,0.169,0.25,0.298
						c0.212,0.261,0.508,0.636,0.846,1.098c0.336,0.46,0.713,1.008,1.099,1.603c0.099,0.147,0.194,0.303,0.292,0.456
						c0.099,0.154,0.195,0.311,0.292,0.47c0.196,0.317,0.387,0.644,0.579,0.97c0.188,0.329,0.377,0.656,0.558,0.982
						c0.019,0.036,0.039,0.072,0.06,0.108c0.299-1.76,0.933-6.523-0.531-9.04c-3.326-5.711-11.172-1.142-7.846,4.569
						c1.465,2.516,5.92,4.316,7.6,4.923C127.427,37.66,127.409,37.627,127.384,37.591z"/>
				</g>
			</g>
		</g>
	</g>
</g>
</svg>
