<?xml version="1.0" encoding="utf-8"?>
<!-- Generator: Adobe Illustrator 16.0.0, SVG Export Plug-In . SVG Version: 6.00 Build 0)  -->
<!DOCTYPE svg PUBLIC "-//W3C//DTD SVG 1.1//EN" "http://www.w3.org/Graphics/SVG/1.1/DTD/svg11.dtd">
<svg version="1.1" id="Capa_1" xmlns="http://www.w3.org/2000/svg" xmlns:xlink="http://www.w3.org/1999/xlink" x="0px" y="0px"
	 width="600px" height="170.286px" viewBox="0 0 600 170.286" enable-background="new 0 0 600 170.286" xml:space="preserve">
<g id="Logo_DEF">
	<rect x="-35.878" y="-267.634" display="none" fill="#FFFFFF" width="681" height="561"/>
	
		<line display="none" opacity="0.5" fill="none" stroke="#000000" stroke-miterlimit="10" enable-background="new    " x1="628.265" y1="91.652" x2="65.521" y2="-3.372"/>
	<g>
		<path fill="#CC0033" d="M190.58,21.614c-26.672,61.336-40,99-40,113c0,5.674,2.5,8.5,7.5,8.5c1.664,0,5.164-1.662,10.5-5
			c5.328-3.326,9.328-5,12-5c3.328,0,5,1.838,5,5.5c0,2.338-6.5,7.5-19.5,15.5c-14.672,8.664-23.672,13-27,13c-14,0-21-8.662-21-26
			c0-11.662,1.328-23.662,4-36c-1.336,0-6.172,5.174-14.5,15.5c-25.672,29.674-49.172,44.5-70.5,44.5c-9.672,0-17.672-3.172-24-9.5
			c-6.336-6.326-9.5-14.326-9.5-24c-0.672-31.662,15.828-60,49.5-85c30.328-23.328,62-35,95-35
			C175.744,11.614,189.908,14.95,190.58,21.614z M150.08,37.114c0-6.664-7.5-10-22.5-10c-22.336,0-42.836,8.836-61.5,26.5
			c-18.672,17.672-28,37.5-28,59.5c0,15,6.664,22.5,20,22.5C85.744,135.614,116.408,102.788,150.08,37.114z"/>
		<path fill="#CC0033" d="M194.044,117.875c0-13.944,3.113-25.056,9.338-33.328c6.225-8.273,14.678-12.41,25.359-12.41
			c12.119,0,21.36,4.787,27.725,14.358V36.114h9.878v127.5h-9.297l-0.415-11.951c-6.364,9.074-15.717,13.611-28.057,13.611
			c-10.349,0-18.691-4.164-25.027-12.492c-6.337-8.326-9.504-19.574-9.504-33.742V117.875L194.044,117.875z M204.088,119.622
			c0,11.455,2.296,20.488,6.89,27.104c4.593,6.611,11.067,9.92,19.424,9.92c12.229,0,20.918-5.396,26.064-16.188v-42.17
			c-5.146-11.678-13.779-17.516-25.898-17.516c-8.356,0-14.858,3.279-19.507,9.836C206.412,97.167,204.088,106.836,204.088,119.622z
			"/>
		<path fill="#CC0033" d="M342.539,163.614c-0.938-2.654-1.537-6.588-1.797-11.797c-3.281,4.271-7.461,7.564-12.539,9.885
			c-5.078,2.315-10.457,3.479-16.133,3.479c-8.125,0-14.701-2.268-19.729-6.799c-5.027-4.529-7.539-10.26-7.539-17.188
			c0-8.229,3.424-14.736,10.272-19.529c6.849-4.791,16.396-7.188,28.633-7.188h16.953v-9.607c0-6.041-1.862-10.793-5.586-14.26
			c-3.728-3.463-9.154-5.195-16.289-5.195c-6.513,0-11.899,1.667-16.172,5c-4.271,3.334-6.406,7.344-6.406,12.03l-9.375-0.077
			c0-6.72,3.125-12.539,9.375-17.462c6.25-4.922,13.935-7.383,23.047-7.383c9.429,0,16.861,2.357,22.308,7.07
			c5.439,4.715,8.242,11.289,8.396,19.727v40c0,8.181,0.858,14.298,2.578,18.358v0.938h-9.999L342.539,163.614L342.539,163.614z
			 M313.164,156.896c6.25,0,11.836-1.51,16.758-4.531c4.924-3.02,8.502-7.057,10.742-12.108v-18.594h-16.719
			c-9.324,0.104-16.615,1.813-21.875,5.116c-5.262,3.31-7.891,7.853-7.891,13.634c0,4.739,1.758,8.672,5.272,11.797
			C302.965,155.334,307.539,156.896,313.164,156.896z"/>
		<path fill="#009966" d="M433.627,124.795c0,12.354-2.735,22.156-8.203,29.406c-5.469,7.252-12.814,10.877-22.046,10.877
			c-11.036,0-19.385-4.104-25.049-12.308l-0.366,10.84h-8.201v-112.5h8.715v44.75c5.565-8.644,13.816-12.963,24.758-12.963
			c9.375,0,16.781,3.576,22.229,10.729c5.444,7.151,8.167,17.104,8.167,29.848L433.627,124.795L433.627,124.795z M424.838,123.256
			c0-10.446-2.024-18.521-6.079-24.204c-4.054-5.689-9.767-8.533-17.139-8.533c-5.616,0-10.376,1.379-14.282,4.14
			c-3.906,2.756-6.859,6.797-8.861,12.12v35.742c4.396,9.961,12.157,14.94,23.291,14.94c7.229,0,12.879-2.856,16.955-8.569
			C422.798,143.179,424.838,134.636,424.838,123.256z"/>
		<path fill="#009966" d="M472.709,164.614h-6.854V89.661l-22.623,8.398v-6.398l28.336-10.512h1.143L472.709,164.614
			L472.709,164.614z"/>
		<path fill="#009966" d="M511.31,64.077v20.289h16.406v7.177H511.31v52.867c0,4.397,0.797,7.676,2.384,9.823
			c1.586,2.152,4.231,3.229,7.943,3.229c1.466,0,3.833-0.243,7.104-0.731l0.366,7.115c-2.298,0.821-5.42,1.233-9.375,1.233
			c-6.009,0-10.377-1.746-13.11-5.235c-2.735-3.492-4.103-8.632-4.103-15.418V91.545h-14.574v-7.178h14.574v-20.29H511.31z"/>
		<path fill="#009966" d="M588.017,143.472c0-4.347-1.743-7.836-5.233-10.474c-3.492-2.64-8.752-4.699-15.784-6.188
			c-7.031-1.488-12.488-3.197-16.37-5.127c-3.882-1.929-6.764-4.285-8.643-7.068c-1.88-2.782-2.82-6.151-2.82-10.106
			c0-6.25,2.611-11.409,7.837-15.487c5.224-4.076,11.913-6.115,20.068-6.115c8.837,0,15.93,2.187,21.273,6.558
			c5.351,4.371,8.021,10.067,8.021,17.102h-8.789c0-4.639-1.941-8.496-5.823-11.572s-8.778-4.613-14.685-4.613
			c-5.766,0-10.393,1.281-13.88,3.849c-3.491,2.563-5.236,5.896-5.236,9.995c0,3.954,1.452,7.021,4.354,9.191
			c2.904,2.172,8.203,4.162,15.896,5.969c7.688,1.81,13.451,3.734,17.285,5.785c3.833,2.053,6.676,4.521,8.532,7.397
			c1.854,2.881,2.78,6.371,2.78,10.474c0,6.69-2.696,12.037-8.093,16.041s-12.439,6.006-21.13,6.006
			c-9.229,0-16.712-2.231-22.449-6.7c-5.737-4.47-8.604-10.117-8.604-16.956h8.788c0.342,5.127,2.502,9.117,6.479,11.979
			c3.979,2.854,9.24,4.282,15.784,4.282c6.103,0,11.034-1.343,14.795-4.024C586.136,150.968,588.017,147.573,588.017,143.472z"/>
	</g>
	<g id="arrodonida">
		<g>
			<g>
				<path fill="#FFFFFF" stroke="#CC0033" stroke-miterlimit="10" d="M179.042,21.589c0.288-0.53,0.598-1.06,0.903-1.59
					c0.313-0.528,0.625-1.059,0.944-1.569c0.156-0.256,0.317-0.511,0.476-0.759c0.16-0.251,0.313-0.497,0.476-0.738
					c0.627-0.963,1.24-1.846,1.787-2.593c0.547-0.746,1.025-1.353,1.371-1.772c0.172-0.211,0.313-0.371,0.408-0.481
					c0.098-0.11,0.15-0.168,0.15-0.168s-0.029,0.073-0.076,0.21c-0.05,0.138-0.121,0.34-0.221,0.593
					c-0.194,0.508-0.49,1.224-0.874,2.063c-0.384,0.842-0.855,1.809-1.387,2.829c-0.131,0.256-0.272,0.513-0.412,0.774
					c-0.139,0.261-0.282,0.522-0.428,0.787c-0.292,0.528-0.601,1.059-0.906,1.59c-0.316,0.528-0.625,1.055-0.947,1.566
					c-0.035,0.056-0.07,0.111-0.105,0.164c2.722-0.972,9.944-3.869,12.33-7.94c5.409-9.236-7.277-16.667-12.689-7.431
					c-2.381,4.069-1.377,11.788-0.893,14.639C178.978,21.704,179.008,21.646,179.042,21.589z"/>
			</g>
			<g>
				<path fill="#FFFFFF" stroke="#CC0033" stroke-miterlimit="10" d="M181.245,23.978c0.602-0.015,1.217-0.012,1.83-0.013
					c0.613,0.009,1.225,0.013,1.829,0.035c0.301,0.006,0.602,0.019,0.896,0.03c0.295,0.014,0.589,0.023,0.875,0.043
					c1.148,0.063,2.221,0.151,3.142,0.252c0.918,0.101,1.684,0.211,2.218,0.299c0.267,0.046,0.479,0.089,0.622,0.114
					c0.145,0.031,0.22,0.044,0.22,0.044s-0.076,0.017-0.221,0.042c-0.144,0.025-0.354,0.067-0.622,0.105
					c-0.539,0.083-1.303,0.185-2.224,0.271c-0.921,0.09-1.993,0.167-3.143,0.216c-0.287,0.015-0.58,0.021-0.876,0.029
					c-0.293,0.012-0.597,0.02-0.896,0.021c-0.604,0.014-1.218,0.014-1.83,0.012c-0.61-0.009-1.226-0.016-1.83-0.034
					c-0.066-0.003-0.129-0.007-0.197-0.008c2.205,1.869,8.329,6.676,13.044,6.705c10.702,0.065,10.794-14.637,0.092-14.703
					c-4.719-0.03-10.899,4.699-13.126,6.541C181.114,23.981,181.178,23.978,181.245,23.978z"/>
			</g>
			<g>
				<path fill="#FFFFFF" stroke="#CC0033" stroke-miterlimit="10" d="M180.277,27.081c0.313,0.516,0.619,1.046,0.925,1.577
					c0.301,0.534,0.604,1.069,0.884,1.603c0.147,0.262,0.287,0.528,0.423,0.792c0.136,0.261,0.271,0.521,0.403,0.778
					c0.516,1.026,0.977,2,1.349,2.847c0.373,0.844,0.659,1.563,0.849,2.072c0.097,0.253,0.163,0.458,0.213,0.595
					c0.046,0.141,0.07,0.213,0.07,0.213s-0.049-0.06-0.146-0.17c-0.092-0.112-0.233-0.273-0.403-0.485
					c-0.34-0.428-0.812-1.04-1.348-1.792s-1.138-1.643-1.756-2.614c-0.156-0.241-0.31-0.49-0.463-0.744
					c-0.159-0.25-0.314-0.507-0.467-0.765c-0.314-0.517-0.617-1.05-0.925-1.58c-0.301-0.534-0.602-1.066-0.885-1.603
					c-0.031-0.056-0.063-0.113-0.092-0.173c-0.519,2.845-1.617,10.55,0.713,14.65c5.296,9.3,18.075,2.027,12.781-7.274
					c-2.333-4.1-9.521-7.089-12.23-8.095C180.211,26.971,180.243,27.021,180.277,27.081z"/>
			</g>
			<g>
				<path fill="#FFFFFF" stroke="#CC0033" stroke-miterlimit="10" d="M177.105,27.794c-0.288,0.529-0.596,1.058-0.903,1.591
					c-0.312,0.528-0.626,1.056-0.942,1.566c-0.158,0.259-0.316,0.511-0.477,0.76c-0.159,0.252-0.314,0.499-0.474,0.738
					c-0.629,0.964-1.242,1.847-1.789,2.594c-0.547,0.745-1.024,1.354-1.37,1.772c-0.171,0.209-0.314,0.371-0.409,0.481
					c-0.096,0.11-0.149,0.166-0.149,0.166s0.027-0.071,0.073-0.208c0.053-0.137,0.123-0.342,0.223-0.595
					c0.196-0.507,0.491-1.22,0.875-2.062c0.384-0.841,0.854-1.81,1.385-2.828c0.133-0.256,0.272-0.513,0.412-0.773
					c0.141-0.262,0.283-0.525,0.429-0.787c0.293-0.529,0.598-1.061,0.907-1.591c0.315-0.528,0.624-1.055,0.943-1.566
					c0.038-0.058,0.072-0.11,0.104-0.169c-2.72,0.977-9.945,3.876-12.328,7.946c-5.409,9.235,7.278,16.664,12.689,7.43
					c2.381-4.069,1.377-11.788,0.893-14.641C177.171,27.679,177.14,27.735,177.105,27.794z"/>
			</g>
			<g>
				<path fill="#FFFFFF" stroke="#CC0033" stroke-miterlimit="10" d="M174.903,25.404c-0.602,0.015-1.216,0.012-1.828,0.013
					c-0.615-0.008-1.227-0.013-1.832-0.034c-0.298-0.008-0.599-0.019-0.896-0.031c-0.295-0.013-0.588-0.023-0.876-0.044
					c-1.147-0.061-2.22-0.149-3.141-0.25c-0.917-0.102-1.684-0.212-2.217-0.302c-0.268-0.042-0.48-0.088-0.624-0.11
					c-0.144-0.032-0.22-0.045-0.22-0.045s0.077-0.018,0.22-0.043c0.146-0.024,0.356-0.066,0.625-0.106
					c0.535-0.082,1.302-0.183,2.223-0.271c0.92-0.09,1.993-0.167,3.143-0.216c0.288-0.013,0.58-0.021,0.875-0.03
					c0.297-0.011,0.596-0.017,0.897-0.02c0.602-0.015,1.218-0.014,1.831-0.012c0.612,0.008,1.225,0.015,1.829,0.036
					c0.067,0.001,0.13,0.005,0.197,0.005c-2.204-1.868-8.328-6.674-13.042-6.705c-10.704-0.064-10.796,14.639-0.093,14.706
					c4.717,0.027,10.897-4.703,13.128-6.543C175.035,25.4,174.969,25.405,174.903,25.404z"/>
			</g>
			<g>
				<path fill="#FFFFFF" stroke="#CC0033" stroke-miterlimit="10" d="M175.867,22.302c-0.31-0.516-0.615-1.047-0.922-1.578
					c-0.3-0.535-0.603-1.068-0.886-1.601c-0.146-0.264-0.283-0.529-0.419-0.791c-0.138-0.263-0.273-0.521-0.402-0.782
					c-0.521-1.024-0.978-1.998-1.352-2.844c-0.373-0.846-0.659-1.565-0.849-2.073c-0.098-0.252-0.165-0.457-0.213-0.595
					c-0.046-0.14-0.072-0.213-0.072-0.213s0.052,0.059,0.147,0.169c0.092,0.114,0.233,0.276,0.402,0.488
					c0.339,0.425,0.813,1.036,1.351,1.79c0.536,0.75,1.138,1.644,1.754,2.613c0.157,0.241,0.31,0.492,0.465,0.744
					c0.157,0.251,0.313,0.506,0.466,0.766c0.313,0.517,0.618,1.049,0.924,1.578c0.301,0.536,0.6,1.07,0.886,1.602
					c0.03,0.059,0.061,0.116,0.093,0.176c0.516-2.845,1.617-10.551-0.715-14.65c-5.294-9.303-18.075-2.027-12.779,7.274
					c2.333,4.099,9.519,7.087,12.229,8.096C175.936,22.412,175.905,22.36,175.867,22.302z"/>
			</g>
		</g>
	</g>
	<g id="tropical" display="none">
		<g display="inline">
			<g>
				<path fill="#FFFFFF" stroke="#CC0033" stroke-width="0.9115" stroke-miterlimit="10" d="M181.36,24.332
					c0.604-0.016,1.216-0.018,1.828-0.021c0.615,0.002,1.229,0.004,1.83,0.021c0.302,0.006,0.601,0.016,0.896,0.028
					c0.297,0.012,0.588,0.02,0.876,0.035c1.148,0.059,2.222,0.142,3.142,0.236c0.919,0.096,1.685,0.201,2.222,0.287
					c0.268,0.041,0.479,0.085,0.621,0.11c0.146,0.028,0.222,0.042,0.222,0.042s-0.077,0.017-0.22,0.043
					c-0.143,0.024-0.354,0.067-0.622,0.109c-0.538,0.086-1.302,0.193-2.224,0.286c-0.92,0.093-1.991,0.175-3.141,0.231
					c-0.287,0.017-0.579,0.024-0.875,0.037c-0.297,0.012-0.594,0.021-0.897,0.023c-0.602,0.019-1.216,0.019-1.829,0.022
					c-0.615-0.006-1.226-0.006-1.831-0.024c-0.065-0.001-0.132-0.003-0.195-0.006c2.214,1.857,8.364,6.628,13.082,6.632
					c10.703,0.002,6.741-3.29,6.743-7.35c0.002-4.061,3.968-7.351-6.737-7.354c-4.716-0.002-10.87,4.762-13.087,6.619
					C181.229,24.338,181.293,24.334,181.36,24.332z"/>
			</g>
			<g>
				<path fill="#FFFFFF" stroke="#CC0033" stroke-width="0.9115" stroke-miterlimit="10" d="M180.41,27.441
					c0.317,0.513,0.624,1.043,0.935,1.573c0.301,0.532,0.607,1.063,0.895,1.596c0.145,0.263,0.287,0.526,0.425,0.79
					c0.138,0.263,0.276,0.52,0.405,0.776c0.528,1.021,0.992,1.994,1.367,2.839c0.378,0.844,0.668,1.561,0.864,2.065
					c0.095,0.252,0.164,0.458,0.214,0.595c0.047,0.142,0.073,0.212,0.073,0.212s-0.053-0.057-0.147-0.167
					c-0.094-0.113-0.236-0.273-0.404-0.485c-0.344-0.424-0.819-1.034-1.36-1.783c-0.541-0.749-1.149-1.636-1.77-2.604
					c-0.16-0.239-0.313-0.49-0.469-0.74c-0.158-0.249-0.316-0.506-0.471-0.763c-0.316-0.516-0.625-1.045-0.935-1.574
					c-0.3-0.532-0.606-1.065-0.892-1.595c-0.032-0.063-0.061-0.118-0.093-0.176c-0.5,2.848-1.559,10.56,0.796,14.647
					c5.349,9.27,6.22,4.191,9.736,2.162c3.518-2.027,8.349-0.239,3.003-9.511c-2.355-4.085-9.56-7.035-12.275-8.026
					C180.342,27.329,180.377,27.384,180.41,27.441z"/>
			</g>
			<g>
				<path fill="#FFFFFF" stroke="#CC0033" stroke-width="0.9115" stroke-miterlimit="10" d="M177.243,28.172
					c-0.287,0.53-0.591,1.063-0.894,1.596c-0.311,0.53-0.619,1.063-0.938,1.571c-0.153,0.262-0.31,0.516-0.47,0.767
					c-0.158,0.25-0.313,0.498-0.468,0.739c-0.626,0.968-1.233,1.854-1.776,2.604c-0.541,0.747-1.017,1.357-1.36,1.779
					c-0.17,0.21-0.313,0.369-0.406,0.485c-0.096,0.11-0.147,0.166-0.147,0.166s0.025-0.072,0.072-0.213
					c0.051-0.136,0.119-0.338,0.218-0.592c0.193-0.507,0.485-1.224,0.863-2.066c0.379-0.844,0.845-1.815,1.37-2.836
					c0.131-0.26,0.268-0.515,0.409-0.776c0.135-0.264,0.278-0.528,0.423-0.792c0.289-0.529,0.594-1.062,0.897-1.594
					c0.31-0.528,0.619-1.058,0.937-1.571c0.033-0.058,0.065-0.11,0.103-0.169c-2.716,0.989-9.924,3.93-12.284,8.015
					c-5.354,9.264-0.522,7.484,2.993,9.515c3.514,2.033,4.381,7.111,9.738-2.158c2.359-4.085,1.311-11.796,0.813-14.642
					C177.306,28.059,177.277,28.114,177.243,28.172z"/>
			</g>
			<g>
				<path fill="#FFFFFF" stroke="#CC0033" stroke-width="0.9115" stroke-miterlimit="10" d="M175.027,25.797
					c-0.603,0.017-1.217,0.019-1.829,0.023c-0.613-0.004-1.228-0.008-1.83-0.023c-0.302-0.006-0.601-0.016-0.896-0.029
					c-0.296-0.01-0.588-0.019-0.876-0.034c-1.148-0.057-2.221-0.14-3.142-0.236c-0.919-0.096-1.686-0.198-2.221-0.288
					c-0.268-0.041-0.479-0.084-0.623-0.106c-0.144-0.029-0.219-0.045-0.219-0.045s0.076-0.015,0.219-0.044
					c0.144-0.022,0.354-0.066,0.623-0.107c0.538-0.086,1.302-0.192,2.223-0.285c0.921-0.094,1.993-0.177,3.142-0.231
					c0.288-0.016,0.579-0.026,0.873-0.038c0.298-0.011,0.598-0.021,0.896-0.025c0.607-0.016,1.218-0.02,1.832-0.021
					c0.615,0.006,1.227,0.009,1.83,0.024c0.067,0.003,0.131,0.006,0.198,0.004c-2.216-1.855-8.366-6.626-13.084-6.629
					c-10.702-0.002-6.741,3.289-6.743,7.349c-0.002,4.061-3.965,7.351,6.736,7.355c4.716,0.003,10.871-4.762,13.088-6.619
					C175.158,25.793,175.093,25.794,175.027,25.797z"/>
			</g>
			<g>
				<path fill="#FFFFFF" stroke="#CC0033" stroke-width="0.9115" stroke-miterlimit="10" d="M175.976,22.69
					c-0.316-0.517-0.623-1.045-0.934-1.574c-0.302-0.534-0.607-1.063-0.896-1.598c-0.145-0.263-0.287-0.526-0.425-0.789
					c-0.139-0.263-0.276-0.521-0.403-0.775c-0.529-1.022-0.993-1.996-1.37-2.839c-0.378-0.841-0.667-1.562-0.861-2.068
					c-0.1-0.252-0.166-0.457-0.219-0.595c-0.045-0.14-0.072-0.212-0.072-0.212s0.056,0.059,0.148,0.17
					c0.095,0.112,0.236,0.272,0.406,0.485c0.343,0.42,0.817,1.032,1.357,1.78c0.542,0.75,1.15,1.637,1.772,2.604
					c0.159,0.241,0.312,0.49,0.468,0.741c0.16,0.25,0.316,0.506,0.473,0.764c0.315,0.513,0.624,1.045,0.932,1.573
					c0.303,0.533,0.607,1.065,0.894,1.599c0.031,0.056,0.061,0.115,0.094,0.173c0.499-2.846,1.556-10.559-0.797-14.646
					c-5.349-9.271-6.219-4.195-9.737-2.167c-3.517,2.03-8.35,0.241-3.002,9.515c2.358,4.082,9.563,7.031,12.274,8.025
					C176.046,22.801,176.01,22.746,175.976,22.69z"/>
			</g>
			<g>
				<path fill="#FFFFFF" stroke="#CC0033" stroke-width="0.9115" stroke-miterlimit="10" d="M179.143,21.954
					c0.287-0.527,0.593-1.06,0.895-1.595c0.312-0.526,0.619-1.059,0.936-1.569c0.155-0.261,0.313-0.517,0.471-0.765
					c0.159-0.25,0.313-0.498,0.469-0.741c0.624-0.966,1.234-1.853,1.773-2.603c0.543-0.746,1.021-1.358,1.362-1.78
					c0.169-0.211,0.313-0.372,0.406-0.485c0.097-0.109,0.146-0.168,0.146-0.168s-0.024,0.073-0.071,0.212
					c-0.051,0.138-0.12,0.341-0.218,0.596c-0.194,0.505-0.485,1.223-0.863,2.066c-0.379,0.843-0.844,1.813-1.371,2.836
					c-0.13,0.255-0.269,0.515-0.406,0.775c-0.138,0.263-0.28,0.526-0.427,0.791c-0.288,0.529-0.592,1.063-0.896,1.593
					c-0.311,0.532-0.622,1.06-0.935,1.574c-0.036,0.058-0.07,0.11-0.105,0.169c2.717-0.992,9.922-3.93,12.283-8.015
					c5.356-9.266,0.523-7.484-2.992-9.516c-3.515-2.032-4.382-7.108-9.738,2.157c-2.361,4.084-1.313,11.796-0.813,14.646
					C179.081,22.07,179.111,22.015,179.143,21.954z"/>
			</g>
		</g>
	</g>
</g>
</svg>
